<?xml version="1.0" standalone="no"?>
<!DOCTYPE svg PUBLIC "-//W3C//DTD SVG 20010904//EN"
 "http://www.w3.org/TR/2001/REC-SVG-20010904/DTD/svg10.dtd">
<svg version="1.0" xmlns="http://www.w3.org/2000/svg"
 width="700.000000pt" height="700.000000pt" viewBox="0 0 700.000000 700.000000"
 preserveAspectRatio="xMidYMid meet">
<metadata>
Created by potrace 1.11, written by Peter Selinger 2001-2013
</metadata>
<g transform="translate(0.000000,700.000000) scale(0.100000,-0.100000)"
fill="#000000" stroke="none">
<path d="M3728 6995 c-2 -1 -61 -5 -133 -9 -71 -4 -143 -8 -160 -11 -16 -2
-59 -6 -95 -9 -36 -3 -74 -8 -85 -10 -11 -2 -42 -7 -70 -10 -53 -8 -197 -39
-253 -55 -18 -5 -33 -10 -35 -9 -9 2 -201 -61 -283 -93 -261 -101 -441 -217
-633 -407 -219 -217 -350 -396 -482 -657 -119 -236 -193 -472 -236 -745 -20
-129 -23 -500 -10 -1175 4 -198 10 -468 12 -600 7 -369 15 -700 20 -810 2 -55
6 -181 10 -280 3 -99 8 -223 10 -275 2 -52 7 -172 10 -265 3 -94 8 -211 10
-260 16 -389 16 -480 1 -516 -38 -91 -127 -150 -220 -145 -51 2 -86 16 -162
61 -152 91 -355 -23 -357 -200 -1 -65 14 -102 72 -185 94 -134 217 -234 352
-284 85 -31 142 -40 254 -40 111 -1 163 6 246 34 117 39 261 132 322 208 10
12 25 28 32 35 55 55 127 206 158 327 21 84 21 95 23 1520 2 1422 2 1436 23
1530 52 233 158 418 333 585 177 169 395 281 643 331 90 18 261 23 370 10 398
-46 781 -325 943 -686 61 -135 82 -213 100 -360 58 -486 -207 -970 -647 -1182
-59 -28 -114 -58 -123 -66 -24 -20 -22 -71 2 -102 l19 -25 273 -1 c299 -1 391
5 558 41 14 3 34 7 45 9 93 18 311 96 440 157 159 76 390 228 529 351 349 306
624 732 756 1168 73 244 102 441 103 695 1 125 -8 306 -17 375 -14 97 -26 178
-30 195 -2 11 -12 55 -21 98 -9 44 -20 90 -25 103 -5 13 -8 24 -5 24 5 0 -66
208 -104 305 -192 479 -574 895 -1006 1095 -130 60 -406 140 -565 164 -85 13
-116 18 -138 21 -13 2 -53 7 -90 10 -37 4 -78 9 -92 12 -26 5 -586 13 -592 8z
m-1144 -994 c200 -91 244 -351 86 -508 -75 -75 -213 -106 -315 -73 -159 51
-250 230 -201 393 31 102 129 191 234 212 75 15 123 9 196 -24z"/>
<path d="M2301 5859 c-68 -31 -101 -89 -95 -168 4 -52 21 -80 71 -118 30 -23
46 -28 94 -28 46 1 63 6 93 28 40 31 62 66 69 116 9 53 1 61 -39 40 -35 -18
-48 -17 -91 3 -31 15 -48 70 -34 110 6 17 11 32 11 34 0 8 -47 -2 -79 -17z"/>
</g>
</svg>
