<?xml version="1.0" encoding="utf-8"?>
<!-- Generator: Adobe Illustrator 15.0.2, SVG Export Plug-In . SVG Version: 6.00 Build 0)  -->
<!DOCTYPE svg PUBLIC "-//W3C//DTD SVG 1.1//EN" "http://www.w3.org/Graphics/SVG/1.1/DTD/svg11.dtd">
<svg version="1.1" id="Layer_1" xmlns="http://www.w3.org/2000/svg" xmlns:xlink="http://www.w3.org/1999/xlink" x="0px" y="0px"
	 width="180px" height="180px" viewBox="0 0 180 180" enable-background="new 0 0 180 180" xml:space="preserve">
<g>
	<g>
		<path d="M90,4c47.421,0,86,38.58,86,86c0,47.421-38.579,86-86,86c-47.42,0-86-38.579-86-86C4,42.58,42.58,4,90,4 M90,0
			C40.298,0,0,40.298,0,90c0,49.691,40.298,90,90,90c49.691,0,90-40.309,90-90C180,40.298,139.691,0,90,0L90,0z"/>
	</g>
	<path d="M90,99.375c15.301,0,27.693-12.393,27.693-27.692c0-15.299-12.393-27.692-27.693-27.692
		c-15.3,0-27.692,12.393-27.692,27.692C62.308,86.982,74.7,99.375,90,99.375z M90,113.221c-18.484,0-55.384,9.277-55.384,27.693
		v13.846h110.769v-13.846C145.385,122.498,108.483,113.221,90,113.221z"/>
	<path d="M145.385,153.625H34.616v6.426C49.891,172.537,69.106,180,90,180c20.892,0,40.107-7.465,55.385-19.954V153.625z"/>
</g>
</svg>
