<?xml version="1.0" encoding="utf-8"?>
<!-- Generator: Adobe Illustrator 15.0.2, SVG Export Plug-In . SVG Version: 6.00 Build 0)  -->
<!DOCTYPE svg PUBLIC "-//W3C//DTD SVG 1.1//EN" "http://www.w3.org/Graphics/SVG/1.1/DTD/svg11.dtd">
<svg version="1.1" id="Layer_1" xmlns="http://www.w3.org/2000/svg" xmlns:xlink="http://www.w3.org/1999/xlink" x="0px" y="0px"
	 width="180px" height="168.979px" viewBox="0 0 180 168.979" enable-background="new 0 0 180 168.979" xml:space="preserve">
<g>
	<path d="M114.833,0c-31.39,0-65.167,6.741-65.167,21.526v22.555c0,0.9,0.147,1.966,0.551,3.123C21.692,52.475,0,77.51,0,107.54
		c0,33.888,27.551,61.438,61.439,61.438c23.381,0,43.751-13.133,54.129-32.399c31.168-0.111,64.432-6.852,64.432-21.526V21.526
		C180,6.741,146.222,0,114.833,0z M61.439,160.42c-29.149,0-52.879-23.713-52.879-52.88c0-29.149,23.712-52.861,52.879-52.861
		c29.149,0,52.879,23.712,52.879,52.861C114.301,136.707,90.588,160.42,61.439,160.42z M171.441,115.053
		c0,3.71-17.762,12.196-52.127,12.894c1.818-5.143,2.957-10.579,3.343-16.255c19.359-0.68,38.241-3.93,48.784-9.974V115.053z
		 M171.441,90.331c0,3.912-17.212,11.645-48.803,12.801c-0.367-5.18-1.358-10.194-2.939-14.932
		c20.205-0.441,40.611-3.674,51.742-10.066V90.331z M171.441,66.746c0,3.839-18.846,12.729-55.323,12.95
		c-2.682-5.253-6.098-10.066-10.12-14.309c2.92,0.11,5.877,0.221,8.853,0.221c21.729,0,44.578-3.233,56.591-10.121V66.746z
		 M171.441,44.081c0,3.875-19.249,12.967-56.591,12.967c-6.888,0-13.628-0.349-20.057-0.991c-9.625-6.245-21.067-9.919-33.355-9.919
		c-0.551,0-1.102,0.073-1.653,0.092c-1.103-0.955-1.543-1.708-1.543-2.13v-11.13c0.056,0.018,0.11,0.055,0.147,0.073
		c0.147,0.073,0.294,0.147,0.441,0.22c0.863,0.478,1.8,0.937,2.755,1.377c0.294,0.129,0.588,0.276,0.9,0.404
		c1.12,0.478,2.296,0.955,3.545,1.396c0.018,0,0.018,0.019,0.037,0.019c1.268,0.44,2.59,0.863,3.967,1.267
		c0.367,0.11,0.734,0.202,1.102,0.313c1.194,0.331,2.425,0.643,3.692,0.955c0.221,0.055,0.441,0.11,0.661,0.165
		c1.47,0.331,2.994,0.643,4.537,0.937c0.385,0.073,0.79,0.147,1.175,0.22c1.286,0.239,2.571,0.441,3.894,0.643
		c0.368,0.055,0.716,0.11,1.084,0.166c1.616,0.239,3.251,0.441,4.923,0.643c0.366,0.037,0.734,0.074,1.102,0.11
		c1.396,0.147,2.792,0.294,4.188,0.404c0.44,0.037,0.863,0.073,1.305,0.11c1.708,0.128,3.435,0.257,5.16,0.349
		c0.276,0.019,0.533,0.019,0.81,0.037c1.506,0.073,3.012,0.128,4.518,0.184c0.478,0.018,0.938,0.037,1.414,0.037
		c1.745,0.037,3.509,0.074,5.253,0.074c1.746,0,3.489-0.037,5.235-0.074c0.478-0.019,0.955-0.019,1.414-0.037
		c1.506-0.037,3.013-0.11,4.519-0.184c0.275-0.019,0.551-0.019,0.808-0.037c1.727-0.092,3.454-0.22,5.162-0.349
		c0.44-0.037,0.862-0.074,1.304-0.11c1.414-0.128,2.81-0.257,4.187-0.404c0.369-0.037,0.735-0.073,1.103-0.11
		c1.654-0.183,3.307-0.404,4.923-0.643c0.367-0.055,0.735-0.11,1.102-0.166c1.323-0.202,2.609-0.422,3.895-0.643
		c0.404-0.073,0.789-0.147,1.193-0.22c1.543-0.294,3.067-0.606,4.519-0.937c0.221-0.055,0.44-0.11,0.68-0.165
		c1.268-0.294,2.479-0.606,3.673-0.955c0.369-0.11,0.735-0.203,1.103-0.313c1.358-0.404,2.7-0.808,3.968-1.249
		c0.018,0,0.036-0.018,0.055-0.018c1.23-0.441,2.406-0.9,3.526-1.396c0.313-0.129,0.606-0.257,0.901-0.404
		c0.973-0.441,1.891-0.9,2.754-1.377c0.147-0.073,0.294-0.147,0.423-0.22c0.056-0.019,0.109-0.056,0.147-0.074V44.081
		L171.441,44.081z M114.833,34.493c-37.341,0-56.608-9.091-56.608-12.967c0-3.875,19.249-12.967,56.608-12.967
		c37.34,0,56.589,9.092,56.589,12.967C171.441,25.402,152.173,34.493,114.833,34.493z"/>
</g>
</svg>
