<?xml version="1.0" encoding="utf-8"?>
<!-- Generator: Adobe Illustrator 15.0.2, SVG Export Plug-In . SVG Version: 6.00 Build 0)  -->
<!DOCTYPE svg PUBLIC "-//W3C//DTD SVG 1.1//EN" "http://www.w3.org/Graphics/SVG/1.1/DTD/svg11.dtd">
<svg version="1.1" id="Layer_1" xmlns="http://www.w3.org/2000/svg" xmlns:xlink="http://www.w3.org/1999/xlink" x="0px" y="0px"
	 width="180px" height="180px" viewBox="0 0 180 180" enable-background="new 0 0 180 180" xml:space="preserve">
<g>
	<path d="M180,43.5c0,5.247-4.253,9.5-9.5,9.5h-88c-5.247,0-9.5-4.253-9.5-9.5l0,0c0-5.247,4.253-9.5,9.5-9.5h88
		C175.747,34,180,38.253,180,43.5L180,43.5z"/>
	<path d="M180,164.5c0,5.247-4.253,9.5-9.5,9.5h-88c-5.247,0-9.5-4.253-9.5-9.5l0,0c0-5.247,4.253-9.5,9.5-9.5h88
		C175.747,155,180,159.253,180,164.5L180,164.5z"/>
	<path d="M180,104.5c0,5.247-4.253,9.5-9.5,9.5h-88c-5.247,0-9.5-4.253-9.5-9.5l0,0c0-5.247,4.253-9.5,9.5-9.5h88
		C175.747,95,180,99.253,180,104.5L180,104.5z"/>
	<path d="M29.365,68.433c-2.666,0-5.228-1.115-7.048-3.101L2.515,43.738c-3.57-3.894-3.308-9.943,0.585-13.514
		c3.895-3.57,9.944-3.308,13.514,0.585L27.875,43.09L51.709,4.537c2.777-4.493,8.673-5.884,13.165-3.106
		c4.493,2.778,5.883,8.672,3.106,13.165L37.502,63.898c-1.575,2.548-4.253,4.211-7.236,4.493
		C29.965,68.419,29.665,68.433,29.365,68.433z"/>
	<circle cx="31.642" cy="104.642" r="15.362"/>
	<circle cx="31.642" cy="164.639" r="15.362"/>
</g>
</svg>
