<?xml version="1.0" encoding="utf-8"?>
<!-- Generator: Adobe Illustrator 15.0.2, SVG Export Plug-In . SVG Version: 6.00 Build 0)  -->
<!DOCTYPE svg PUBLIC "-//W3C//DTD SVG 1.1//EN" "http://www.w3.org/Graphics/SVG/1.1/DTD/svg11.dtd">
<svg version="1.1" id="Layer_1" xmlns="http://www.w3.org/2000/svg" xmlns:xlink="http://www.w3.org/1999/xlink" x="0px" y="0px"
	 width="180px" height="28.605px" viewBox="0 0 180 28.605" enable-background="new 0 0 180 28.605" xml:space="preserve">
<g>
	<g>
		<g>
			<path d="M173.843,28.605c-0.008-0.001-0.015-0.001-0.021,0c-0.108,0-0.216-0.034-0.308-0.097l-8.625-6.012l-8.626,6.012
				c-0.188,0.128-0.438,0.126-0.623-0.007c-0.186-0.134-0.265-0.371-0.199-0.59l3.045-10.071l-8.374-6.36
				c-0.183-0.139-0.259-0.376-0.188-0.594c0.071-0.219,0.271-0.366,0.5-0.372l10.504-0.214l3.453-9.939
				C164.456,0.145,164.659,0,164.889,0l0,0c0.229,0,0.433,0.145,0.507,0.361l3.451,9.939l10.508,0.214
				c0.229,0.006,0.429,0.153,0.5,0.372c0.071,0.218-0.004,0.456-0.187,0.594l-8.375,6.36l3.002,9.935
				c0.055,0.084,0.086,0.185,0.086,0.292C174.381,28.363,174.14,28.605,173.843,28.605z M164.889,21.304
				c0.107,0,0.215,0.033,0.308,0.097l7.662,5.341l-2.702-8.947c-0.065-0.217,0.01-0.447,0.189-0.584l7.442-5.652l-9.339-0.189
				c-0.225-0.004-0.422-0.149-0.495-0.361l-3.065-8.832l-3.068,8.832c-0.073,0.212-0.271,0.357-0.495,0.361l-9.334,0.189
				l7.441,5.652c0.18,0.137,0.255,0.367,0.19,0.584l-2.705,8.945l7.662-5.339C164.673,21.337,164.78,21.304,164.889,21.304z"/>
		</g>
		<g>
			<path d="M136.339,28.605c-0.009-0.001-0.015-0.001-0.021,0c-0.108,0-0.216-0.034-0.309-0.097l-8.625-6.012l-8.625,6.012
				c-0.188,0.128-0.438,0.126-0.624-0.007c-0.185-0.134-0.265-0.371-0.198-0.59l3.045-10.071l-8.375-6.36
				c-0.183-0.139-0.258-0.376-0.187-0.594c0.071-0.219,0.271-0.366,0.5-0.372l10.504-0.214l3.453-9.939
				C126.951,0.145,127.155,0,127.384,0l0,0c0.229,0,0.433,0.145,0.508,0.361l3.45,9.939l10.509,0.214
				c0.229,0.006,0.429,0.153,0.5,0.372c0.071,0.218-0.005,0.456-0.188,0.594l-8.374,6.36l3.002,9.935
				c0.054,0.084,0.086,0.185,0.086,0.292C136.877,28.363,136.635,28.605,136.339,28.605z"/>
		</g>
		<g>
			<path d="M98.835,28.605c-0.009-0.001-0.015-0.001-0.022,0c-0.108,0-0.215-0.034-0.308-0.097l-8.625-6.012l-8.626,6.012
				c-0.188,0.128-0.437,0.126-0.623-0.007c-0.185-0.134-0.265-0.371-0.199-0.59l3.045-10.071l-8.375-6.36
				c-0.182-0.139-0.257-0.376-0.187-0.594c0.071-0.219,0.271-0.366,0.5-0.372L85.919,10.3l3.453-9.939
				C89.447,0.145,89.651,0,89.88,0l0,0c0.229,0,0.433,0.145,0.508,0.361l3.45,9.939l10.508,0.214c0.229,0.006,0.429,0.153,0.5,0.372
				c0.071,0.218-0.004,0.456-0.187,0.594l-8.374,6.36l3.001,9.935c0.055,0.084,0.086,0.185,0.086,0.292
				C99.372,28.363,99.131,28.605,98.835,28.605z"/>
		</g>
		<g>
			<path d="M61.33,28.605c-0.007-0.001-0.014-0.001-0.021,0c-0.108,0-0.215-0.034-0.307-0.097l-8.626-6.012l-8.625,6.012
				c-0.188,0.128-0.438,0.126-0.624-0.007c-0.185-0.134-0.265-0.371-0.198-0.59l3.044-10.071l-8.375-6.36
				c-0.182-0.139-0.257-0.376-0.186-0.594c0.071-0.219,0.271-0.366,0.5-0.372L48.416,10.3l3.452-9.939
				C51.943,0.145,52.146,0,52.375,0l0,0c0.229,0,0.433,0.145,0.508,0.361l3.45,9.939l10.508,0.214c0.229,0.006,0.43,0.153,0.5,0.372
				c0.071,0.218-0.004,0.456-0.187,0.594l-8.375,6.36l3.001,9.935c0.054,0.084,0.085,0.185,0.085,0.292
				C61.868,28.363,61.626,28.605,61.33,28.605z"/>
		</g>
		<g>
			<path d="M23.826,28.605c-0.007-0.001-0.014-0.001-0.021,0c-0.107,0-0.215-0.034-0.307-0.097l-8.625-6.012l-8.626,6.012
				c-0.188,0.128-0.438,0.126-0.623-0.007c-0.185-0.134-0.265-0.371-0.199-0.59L8.468,17.84l-8.375-6.36
				c-0.182-0.139-0.257-0.376-0.187-0.594c0.071-0.219,0.271-0.366,0.5-0.372L10.911,10.3l3.453-9.939
				C14.438,0.145,14.643,0,14.872,0l0,0c0.229,0,0.433,0.145,0.507,0.361L18.83,10.3l10.507,0.214c0.229,0.006,0.43,0.153,0.5,0.372
				c0.071,0.218-0.004,0.456-0.186,0.594l-8.375,6.36l3.001,9.935c0.054,0.084,0.085,0.185,0.085,0.292
				C24.363,28.363,24.123,28.605,23.826,28.605z"/>
		</g>
	</g>
</g>
</svg>
